<?xml version="1.0" encoding="UTF-8"?>
<!DOCTYPE svg PUBLIC "-//W3C//DTD SVG 1.1//EN" "http://www.w3.org/Graphics/SVG/1.1/DTD/svg11.dtd">
<!-- Creator: CorelDRAW X7 -->
<svg xmlns="http://www.w3.org/2000/svg" xml:space="preserve" width="1182px" height="619px" version="1.1" style="shape-rendering:geometricPrecision; text-rendering:geometricPrecision; image-rendering:optimizeQuality; fill-rule:evenodd; clip-rule:evenodd"
viewBox="0 0 1182 619"
 xmlns:xlink="http://www.w3.org/1999/xlink">
 <defs>
  <style type="text/css">
   <![CDATA[
    .fil1 {fill:#1A1A1A;fill-rule:nonzero}
    .fil0 {fill:#333333;fill-rule:nonzero}
   ]]>
  </style>
 </defs>
 <g id="Layer_x0020_1">
  <metadata id="CorelCorpID_0Corel-Layer"/>
  <g id="_1882456027792">
   <path class="fil0" d="M0 619l123 0 12 -115 57 0 12 115 133 0 -100 -619 -137 0 -100 619zm142 -203c5,-49 11,-109 15,-149 2,-21 5,-41 6,-60l2 0c2,19 3,39 6,60 4,40 10,100 15,149l-44 0zm208 203l234 0 0 -109 -103 0 0 -507 -131 0 0 616zm256 0l239 0 0 -109 -108 0 0 -166 76 0 0 -105 -76 0 0 -123 107 0 0 -113 -238 0 0 616zm244 0l106 0 49 -197 49 197 128 0 -97 -322 85 -294 -106 0 -36 157 -38 -157 -128 0 84 284 -96 332z"/>
   <path class="fil1" d="M150 504l29 0c-8,-16 -15,-33 -20,-51 -4,-10 -7,-23 -10,-37l-7 0c0,-7 1,-15 2,-22 -6,-26 -12,-51 -22,-62 -48,-53 -89,58 -26,42 -14,-6 -14,-7 -11,-23 41,-7 26,56 65,153zm38 0l4 0 1 10c15,30 33,57 50,77 9,11 17,20 25,28l69 0 -18 -109c-48,-7 -65,-78 -16,-101l-3 -15c-23,10 -38,34 -41,62 -55,-5 -67,-17 -95,-40l-4 0c3,28 14,59 28,88zm7 33l7 62c5,7 10,14 15,20l43 0c-24,-21 -46,-49 -65,-82zm121 -43l-2 -15c-5,0 -10,-2 -16,-4 4,11 11,16 18,19zm-27 -175l-39 -240c-1,30 -3,58 -6,86 -6,67 -22,132 -28,194 21,-9 45,-24 73,-40zm179 78c4,-1 9,-2 13,-2l0 -18c-2,0 -4,0 -7,1 -41,4 -64,32 -77,63 -12,-21 -21,-43 -47,-50l0 16c38,17 47,82 0,100l0 112 234 0 0 -109 -32 0c-10,17 -27,29 -44,33 -98,25 -140,-116 -40,-146zm-118 88c14,-12 20,-32 0,-50l0 50zm91 2c5,16 10,23 28,29 17,6 34,2 45,-6l-33 0 0 -7c-12,0 -26,-5 -40,-16zm240 -97c14,-2 32,15 37,26 9,19 6,38 -5,51 -23,30 -67,23 -83,-9 -1,47 70,70 106,25 0,-1 1,-1 1,-2l0 -66c-11,-17 -32,-29 -56,-25zm6 -169l50 11 0 -116 18 0c-8,-38 -18,-77 -33,-113l-80 0c22,65 39,146 45,218zm-81 2c4,-1 7,-1 11,-1 -3,-28 -7,-56 -11,-83l0 84zm-149 -220c13,65 21,132 24,201l0 -201 -24 0zm-107 285c17,-8 36,-15 56,-20 0,-87 -6,-179 -21,-265l-35 0 0 285zm256 63c11,-12 28,-22 50,-29 48,-14 85,1 112,22l-31 0 0 3c-17,-8 -37,-11 -61,-7 -33,6 -56,21 -70,42l0 -31zm261 -334c2,-5 5,-10 8,-14l115 0 8 33c-24,-15 -60,5 -64,40 -9,86 121,199 145,342 11,62 -3,133 -31,176l-13 -51c5,-13 12,-33 14,-48 11,-71 -23,-145 -51,-204 -31,-65 -111,-176 -61,-254 -97,58 51,239 89,368 16,57 14,81 5,124l-26 -107 -49 197 -102 0c-1,-1 -2,-2 -3,-3l81 -279c14,-11 30,-31 29,-45 -7,3 -16,15 -24,27l9 -32 -8 -27c0,-1 0,-2 0,-3 -1,-9 -2,-9 -3,-9l-68 -231zm222 -14c17,53 0,116 -55,132l30 -132 25 0zm-66 134c-3,1 -5,1 -7,1 1,-6 2,-11 3,-16l4 15zm-178 474c-21,-20 -50,-31 -86,-28 7,10 19,22 28,36l-181 0 0 -123c20,32 57,54 106,44 25,-5 43,-16 56,-30l77 0 0 101z"/>
  </g>
 </g>
</svg>
